<svg width="298" height="78" viewBox="0 0 298 78" fill="none" xmlns="http://www.w3.org/2000/svg">
<path d="M262.071 7.37203C270.199 6.34636 278.112 7.3178 285.065 11.8427C290.951 15.6738 295.254 21.5096 296.712 28.4179C298.314 36.0125 296.824 43.5939 292.582 50.0703C287.745 57.454 280.477 61.5564 271.983 63.3388C271.609 63.4154 271.235 63.4748 270.854 63.5039C261.649 64.2101 253.491 61.4417 246.618 55.2783C239.745 49.1149 237.936 39.0864 239.552 28.3261C240.191 24.0791 240.593 21.4853 242.86 17.8378C247.37 10.5819 254.34 8.49025 262.071 7.37203ZM267.658 18.4189C267.385 18.4193 267.113 18.427 266.84 18.4404C266.568 18.4541 266.296 18.4739 266.025 18.5009C265.754 18.5279 265.483 18.5621 265.214 18.6025C264.944 18.6427 264.675 18.6896 264.408 18.7431C264.142 18.7964 263.876 18.8556 263.613 18.9218C263.349 18.9882 263.088 19.0615 262.828 19.1406C262.568 19.2197 262.31 19.3048 262.054 19.3964C261.798 19.4883 261.545 19.5872 261.294 19.6914C261.043 19.7955 260.795 19.9052 260.549 20.0214C260.304 20.1378 260.06 20.2603 259.821 20.3886C259.581 20.5169 259.345 20.6511 259.112 20.791C258.879 20.9308 258.649 21.0764 258.423 21.2275C258.198 21.3787 257.976 21.5353 257.757 21.6972C257.539 21.8591 257.326 22.0268 257.116 22.1992C256.906 22.3717 256.7 22.5489 256.499 22.7314C256.297 22.914 256.1 23.1017 255.908 23.2939C255.716 23.4859 255.529 23.6825 255.346 23.8837C255.164 24.0852 254.986 24.291 254.814 24.5009C254.642 24.7111 254.474 24.9262 254.312 25.1445C254.151 25.3627 253.994 25.5848 253.843 25.8105C253.693 26.0364 253.547 26.2657 253.407 26.499C253.267 26.7319 253.134 26.9684 253.006 27.208C252.877 27.4478 252.755 27.691 252.638 27.9365C252.522 28.1819 252.412 28.4299 252.308 28.6806C252.204 28.9318 252.106 29.1857 252.014 29.4414C251.923 29.6973 251.838 29.9558 251.758 30.2158C251.68 30.4757 251.607 30.7374 251.541 31.0009C251.474 31.2646 251.414 31.5295 251.361 31.7959C251.308 32.0623 251.261 32.3306 251.221 32.5996C251.181 32.8682 251.148 33.1379 251.121 33.4082C251.094 33.6785 251.074 33.9494 251.06 34.2207C251.047 34.4921 251.04 34.7643 251.04 35.0361C251.039 35.3076 251.045 35.5791 251.058 35.8505C251.071 36.122 251.092 36.3927 251.118 36.663C251.144 36.9336 251.177 37.2038 251.216 37.4726C251.256 37.7414 251.302 38.009 251.355 38.2753C251.408 38.5418 251.466 38.8074 251.532 39.0712C251.598 39.3349 251.67 39.5972 251.749 39.8574C251.827 40.1174 251.913 40.3751 252.004 40.6308C252.095 40.8869 252.192 41.1413 252.296 41.3925C252.399 41.6438 252.509 41.8921 252.625 42.1377C252.74 42.3836 252.862 42.6271 252.99 42.8671C253.118 43.107 253.251 43.3439 253.39 43.5771C253.53 43.8104 253.674 44.0403 253.825 44.2666C253.975 44.4928 254.132 44.7151 254.294 44.9335C254.455 45.1521 254.622 45.3666 254.794 45.5771C254.965 45.7875 255.143 45.9936 255.325 46.1953C255.507 46.397 255.694 46.5945 255.885 46.7871C256.077 46.9796 256.273 47.1676 256.474 47.3505C256.675 47.5335 256.881 47.711 257.09 47.8837C257.3 48.0567 257.513 48.2253 257.731 48.3877C257.949 48.55 258.171 48.7069 258.397 48.8584C258.623 49.0101 258.852 49.1556 259.085 49.2959C259.317 49.4361 259.553 49.5705 259.793 49.6992C260.032 49.8281 260.275 49.9514 260.52 50.0683C260.765 50.185 261.013 50.2958 261.263 50.4003C261.514 50.5049 261.768 50.604 262.023 50.6962C262.279 50.7885 262.537 50.8745 262.797 50.9541C263.057 51.0337 263.319 51.1068 263.582 51.1738C263.845 51.2405 264.11 51.3006 264.376 51.3544C264.642 51.4081 264.91 51.4562 265.178 51.497C265.447 51.5377 265.718 51.5711 265.988 51.5986C266.258 51.6262 266.529 51.647 266.8 51.6611C267.072 51.6754 267.343 51.6835 267.615 51.6845C267.887 51.6853 268.159 51.6791 268.43 51.6669C268.702 51.6544 268.972 51.636 269.243 51.6103C269.513 51.5847 269.783 51.5526 270.052 51.5136C270.321 51.4747 270.589 51.429 270.856 51.3769C271.123 51.3246 271.389 51.2662 271.654 51.2011C271.919 51.1357 272.182 51.0635 272.443 50.9853C272.704 50.9073 272.963 50.8225 273.22 50.7314C273.477 50.6406 273.732 50.5438 273.984 50.4404C274.236 50.337 274.486 50.2272 274.733 50.1113C274.98 49.9955 275.224 49.8736 275.465 49.746C275.705 49.6183 275.943 49.4852 276.177 49.3457C276.412 49.2065 276.643 49.061 276.87 48.9101C277.097 48.7594 277.32 48.603 277.54 48.4414C277.759 48.2796 277.974 48.1124 278.185 47.9404C278.397 47.768 278.604 47.5907 278.806 47.4082C279.009 47.2258 279.207 47.0379 279.4 46.8457C279.593 46.6536 279.782 46.4573 279.965 46.2558C280.149 46.0542 280.328 45.8478 280.502 45.6377C280.675 45.4274 280.844 45.2125 281.007 44.9941C281.169 44.7758 281.326 44.5532 281.478 44.3271C281.63 44.1008 281.777 43.8712 281.918 43.6377C282.059 43.4041 282.194 43.1667 282.323 42.9267C282.452 42.6867 282.575 42.4433 282.692 42.1972C282.809 41.9513 282.92 41.7026 283.025 41.4511C283.13 41.1995 283.229 40.9449 283.321 40.6884C283.413 40.432 283.499 40.1735 283.579 39.913C283.659 39.6522 283.732 39.3893 283.798 39.125C283.865 38.8608 283.925 38.5952 283.979 38.3281C284.033 38.0607 284.08 37.7919 284.121 37.5224C284.161 37.2528 284.195 36.9821 284.222 36.7109C284.25 36.4398 284.27 36.1676 284.284 35.8955C284.298 35.6233 284.305 35.3506 284.305 35.0781C284.306 34.8055 284.299 34.5331 284.286 34.2607C284.273 33.9885 284.254 33.7164 284.227 33.4453C284.201 33.174 284.168 32.9034 284.129 32.6337C284.089 32.3642 284.043 32.0956 283.99 31.8281C283.937 31.5607 283.877 31.2946 283.811 31.0302C283.745 30.766 283.673 30.503 283.594 30.2421C283.515 29.9811 283.43 29.7215 283.339 29.4648C283.247 29.2081 283.149 28.954 283.045 28.7021C282.941 28.4501 282.831 28.2005 282.715 27.9541C282.598 27.7076 282.476 27.4641 282.347 27.2236C282.219 26.983 282.085 26.7455 281.945 26.5117C281.805 26.2777 281.659 26.047 281.507 25.8203C281.356 25.5937 281.2 25.3703 281.038 25.1513C280.875 24.9322 280.707 24.7175 280.535 24.5068C280.362 24.2961 280.184 24.0897 280.002 23.8877C279.819 23.6857 279.63 23.4877 279.437 23.2949C279.245 23.1022 279.047 22.9145 278.845 22.7314C278.643 22.5482 278.437 22.3702 278.226 22.1972C278.016 22.0242 277.801 21.8567 277.582 21.6943C277.363 21.5317 277.14 21.374 276.914 21.2226C276.687 21.0712 276.457 20.9251 276.223 20.7851C275.99 20.645 275.752 20.5113 275.511 20.3828C275.271 20.2543 275.027 20.1311 274.781 20.0146C274.535 19.8981 274.285 19.7876 274.033 19.6835C273.781 19.5792 273.527 19.4812 273.27 19.3896C273.014 19.2979 272.755 19.2128 272.494 19.1337C272.233 19.0548 271.97 18.9821 271.706 18.916C271.441 18.8498 271.175 18.7902 270.908 18.7373C270.64 18.6842 270.372 18.6374 270.102 18.5976C269.832 18.5578 269.562 18.5246 269.291 18.498C269.019 18.4715 268.747 18.4515 268.475 18.4384C268.203 18.4251 267.93 18.4187 267.658 18.4189Z" fill="#FFFFFF"/>
<path d="M196.579 5.83386C197.778 5.37559 218.206 5.59695 220.521 5.92566C223.293 6.31843 226.011 7.12761 228.474 8.4696C228.721 8.60255 228.965 8.7414 229.206 8.8866C229.447 9.03181 229.685 9.18344 229.92 9.3407C230.153 9.49776 230.382 9.66027 230.606 9.82898C230.831 9.99752 231.051 10.1718 231.268 10.3514C231.484 10.5309 231.697 10.7167 231.905 10.9071C232.111 11.0974 232.314 11.2926 232.512 11.493C232.708 11.6935 232.9 11.8991 233.088 12.1093C233.276 12.3193 233.457 12.5338 233.633 12.7528C233.809 12.9722 233.98 13.1959 234.146 13.4237C234.31 13.6515 234.469 13.8834 234.623 14.119C234.776 14.3549 234.923 14.5948 235.064 14.8378C235.207 15.0808 235.343 15.3273 235.471 15.577C235.6 15.827 235.722 16.0807 235.839 16.3368C235.955 16.593 236.066 16.8516 236.17 17.1132C236.272 17.3748 236.368 17.6396 236.458 17.9061C236.548 18.1726 236.631 18.4412 236.709 18.7118C237.925 23.0451 237.444 28.266 235.195 32.1884C233.146 35.7664 229.874 38.0326 225.934 39.0966C226.133 39.2335 226.317 39.3796 226.492 39.5428C227.821 40.7689 231.899 48.2516 231.951 49.8309C232.291 49.5476 235 57.4996 234 58.4999C231.304 61.1957 226.248 61.4594 224.314 59.7264C220.551 56.3538 216.535 44.7017 212.828 40.246C211.171 40.3045 209.504 40.4009 207.844 40.4003C208.851 41.895 208.511 57.2158 208.076 59.7177C208.024 60.0163 207.923 60.2973 207.801 60.5731C206.565 61.2197 197.807 61.2972 196.331 60.7889C195.975 60.6665 195.702 60.4517 195.405 60.2294C195.194 60.0686 194.97 59.9184 194.759 59.7548C195.727 57.6813 195.149 23.429 195.146 18.6698C195.143 15.2012 194.492 10.1771 195.688 6.96277C195.88 6.4427 196.015 6.0492 196.579 5.83386ZM219.308 17.1708C216.017 16.1779 211.986 16.6049 208.564 16.6766C206.958 20.4308 209.697 26.9934 207.84 30.5858C207.816 30.6348 207.791 30.6847 207.767 30.7343C211.269 30.7714 218.836 31.673 221.513 29.0585C221.642 28.9312 221.749 28.7785 221.844 28.6249C223.012 28.0165 223.652 27.0145 224.059 25.7792C224.617 24.0789 224.341 21.9269 223.514 20.3553C222.641 18.6971 221.063 17.7011 219.308 17.1708Z" fill="#FFFFFF"/>
<path d="M57.4619 5.3731C65.5898 4.34747 73.5023 5.31895 80.4551 9.8438C86.3415 13.6749 90.6446 19.5105 92.1025 26.419C93.7053 34.0136 92.2145 41.5949 87.9727 48.0713C83.1365 55.4551 75.8679 59.5575 67.374 61.3399C66.9998 61.4165 66.6259 61.4758 66.2451 61.5049C57.0402 62.2111 48.9739 59.2268 42.0088 53.2794C43.62 48.343 44.684 43.5994 43.5547 38.4219C42.4386 33.3031 39.3199 29.131 34.9434 26.3272C36.6246 22.8044 37.7913 19.7289 38.251 15.8389C43.449 10.067 49.7308 6.49132 57.4619 5.3731ZM63.0488 16.42C62.7762 16.4204 62.5037 16.4281 62.2314 16.4415C61.9592 16.4552 61.6872 16.475 61.416 16.502C61.1446 16.529 60.8741 16.5632 60.6045 16.6036C60.3349 16.6438 60.0661 16.6907 59.7988 16.7442C59.5325 16.7975 59.2673 16.8566 59.0039 16.9229C58.7403 16.9893 58.4787 17.0626 58.2188 17.1417C57.9589 17.2208 57.7009 17.3059 57.4453 17.3975C57.1894 17.4894 56.9357 17.5882 56.6846 17.6924C56.4336 17.7966 56.1849 17.9061 55.9395 18.0225C55.6938 18.1389 55.4513 18.2614 55.2119 18.3897C54.9723 18.518 54.736 18.6522 54.5029 18.792C54.27 18.9319 54.0403 19.0775 53.8145 19.2286C53.5886 19.3798 53.3666 19.5363 53.1484 19.6983C52.9302 19.8602 52.7157 20.0279 52.5059 20.2002C52.2961 20.3727 52.0907 20.5501 51.8896 20.7325C51.6882 20.9151 51.4908 21.1028 51.2988 21.295C51.1068 21.487 50.9196 21.6836 50.7373 21.8848C50.5549 22.0863 50.3774 22.2921 50.2051 22.502C50.0327 22.7122 49.865 22.9273 49.7031 23.1456C49.5415 23.3638 49.3855 23.5859 49.2344 23.8116C49.0835 24.0375 48.9375 24.2668 48.7979 24.5001C48.658 24.733 48.5245 24.9695 48.3965 25.209C48.2683 25.4488 48.1455 25.6921 48.0293 25.9376C47.9133 26.1829 47.8032 26.431 47.6992 26.6817C47.5951 26.9328 47.497 27.1868 47.4053 27.4424C47.3136 27.6983 47.2275 27.9569 47.1484 28.2169C47.0697 28.4767 46.997 28.7386 46.9307 29.002C46.8645 29.2656 46.805 29.5306 46.752 29.7969C46.6987 30.0634 46.6523 30.3316 46.6123 30.6006C46.5723 30.8693 46.5387 31.139 46.5117 31.4092C46.485 31.6795 46.4648 31.9504 46.4512 32.2217C46.4377 32.4931 46.4309 32.7654 46.4307 33.0372C46.4303 33.3087 46.4361 33.5802 46.4492 33.8516C46.4623 34.123 46.4825 34.3938 46.5088 34.6641C46.5352 34.9347 46.568 35.2049 46.6074 35.4737C46.647 35.7425 46.6934 36.0101 46.7461 36.2764C46.7988 36.5429 46.8574 36.8085 46.9229 37.0723C46.9887 37.336 47.0612 37.5983 47.1396 37.8585C47.2183 38.1184 47.3026 38.3763 47.3936 38.6319C47.4849 38.888 47.5829 39.1424 47.6865 39.3936C47.79 39.6449 47.8999 39.8932 48.0156 40.1387C48.1314 40.3846 48.2533 40.6282 48.3809 40.8682C48.5087 41.1081 48.642 41.345 48.7812 41.5782C48.9205 41.8115 49.0653 42.0414 49.2158 42.2676C49.3663 42.4938 49.5221 42.7162 49.6836 42.9346C49.8448 43.1531 50.0117 43.3677 50.1836 43.5782C50.3554 43.7885 50.5327 43.9947 50.7148 44.1963C50.8968 44.3981 51.0837 44.5956 51.2754 44.7881C51.4672 44.9807 51.6642 45.1686 51.8652 45.3516C52.0661 45.5346 52.2717 45.7121 52.4814 45.8848C52.6909 46.0578 52.9042 46.2263 53.1221 46.3887C53.34 46.551 53.5624 46.7079 53.7881 46.8594C54.0135 47.0111 54.2428 47.1567 54.4756 47.2969C54.7081 47.4372 54.9442 47.5716 55.1836 47.7002C55.4228 47.8291 55.6648 47.9525 55.9102 48.0694C56.1552 48.1861 56.4036 48.2968 56.6543 48.4014C56.9051 48.506 57.1586 48.605 57.4141 48.6973C57.6697 48.7896 57.9277 48.8755 58.1875 48.9551C58.4474 49.0348 58.7095 49.1079 58.9727 49.1749C59.2359 49.2416 59.5006 49.3017 59.7666 49.3555C60.0331 49.4092 60.3008 49.4573 60.5693 49.4981C60.8381 49.5388 61.1085 49.5722 61.3789 49.5997C61.6492 49.6272 61.92 49.6481 62.1914 49.6622C62.4626 49.6765 62.734 49.6846 63.0059 49.6856C63.2775 49.6864 63.5491 49.6802 63.8203 49.668C64.0917 49.6555 64.3632 49.6371 64.6338 49.6114C64.9044 49.5858 65.1744 49.5537 65.4434 49.5147C65.7123 49.4758 65.9803 49.4301 66.2471 49.378C66.5144 49.3257 66.7804 49.2672 67.0449 49.2022C67.3096 49.1368 67.5728 49.0646 67.834 48.9864C68.0953 48.9084 68.3543 48.8236 68.6113 48.7325C68.8683 48.6416 69.123 48.5449 69.375 48.4415C69.6273 48.3381 69.8773 48.2283 70.124 48.1124C70.3709 47.9966 70.6147 47.8747 70.8555 47.7471C71.0962 47.6194 71.3341 47.4862 71.5684 47.3467C71.8027 47.2076 72.0336 47.0621 72.2607 46.9112C72.4878 46.7605 72.7111 46.6041 72.9307 46.4424C73.1499 46.2807 73.365 46.1135 73.5762 45.9415C73.7875 45.7691 73.9947 45.5918 74.1973 45.4092C74.3997 45.2268 74.5976 45.0389 74.791 44.8467C74.9841 44.6547 75.1729 44.4584 75.3564 44.2569C75.5402 44.0553 75.7182 43.8488 75.8916 43.6387C76.0652 43.4283 76.2335 43.2137 76.3965 42.9952C76.5595 42.7767 76.7173 42.5544 76.8691 42.3282C77.0211 42.1019 77.1678 41.8722 77.3086 41.6387C77.4495 41.4052 77.5838 41.1678 77.7129 40.9278C77.8419 40.6877 77.9651 40.4445 78.082 40.1983C78.1993 39.9522 78.3112 39.7038 78.416 39.4522C78.5209 39.2006 78.6196 38.946 78.7119 38.6895C78.8042 38.4331 78.8901 38.1746 78.9697 37.9141C79.0495 37.6533 79.1229 37.3903 79.1895 37.126C79.2562 36.8619 79.3165 36.5963 79.3701 36.3292C79.4238 36.0618 79.4711 35.793 79.5117 35.5235C79.5521 35.2539 79.5851 34.9832 79.6123 34.712C79.6395 34.4408 79.6609 34.1687 79.6748 33.8965C79.6885 33.6244 79.6947 33.3517 79.6953 33.0792C79.6957 32.8066 79.6899 32.5341 79.6768 32.2618C79.664 31.9896 79.6446 31.7175 79.6182 31.4463C79.5919 31.175 79.5581 30.9045 79.5186 30.6348C79.4789 30.3652 79.4328 30.0967 79.3799 29.8292C79.327 29.5618 79.2679 29.2957 79.2021 29.0313C79.1362 28.7671 79.0641 28.5041 78.9854 28.2432C78.9065 27.9822 78.8212 27.7226 78.7295 27.4659C78.638 27.2092 78.5396 26.9551 78.4355 26.7032C78.3316 26.4512 78.2219 26.2016 78.1055 25.9551C77.9891 25.7087 77.8665 25.4652 77.7383 25.2247C77.61 24.9841 77.476 24.7466 77.3359 24.5127C77.196 24.2787 77.0498 24.048 76.8984 23.8213C76.7472 23.5948 76.5908 23.3714 76.4287 23.1524C76.2664 22.9333 76.0984 22.7186 75.9258 22.5079C75.753 22.2971 75.5746 22.0909 75.3916 21.8887C75.2086 21.6868 75.0209 21.4887 74.8281 21.296C74.6356 21.1033 74.4382 20.9156 74.2363 20.7325C74.0344 20.5493 73.8279 20.3713 73.6172 20.1983C73.4066 20.0253 73.1917 19.8578 72.9727 19.6954C72.7538 19.5328 72.5314 19.3751 72.3047 19.2237C72.078 19.0722 71.8472 18.9263 71.6133 18.7862C71.3797 18.6462 71.1425 18.5123 70.9023 18.3838C70.6617 18.2553 70.4182 18.1322 70.1719 18.0157C69.9254 17.8991 69.6758 17.7887 69.4238 17.6846C69.1721 17.5803 68.9177 17.4823 68.6611 17.3907C68.4045 17.299 68.1455 17.2139 67.8848 17.1348C67.6238 17.0558 67.3611 16.9832 67.0967 16.917C66.8322 16.8508 66.5661 16.7912 66.2988 16.7383C66.0313 16.6852 65.7627 16.6385 65.4932 16.5987C65.2234 16.5589 64.9528 16.5257 64.6816 16.4991C64.4102 16.4726 64.1385 16.4526 63.8662 16.4395C63.594 16.4262 63.3214 16.4198 63.0488 16.42Z" fill="#FFFFFF"/>
<path d="M214.755 69.8922L15.5085 69.9838C12.325 70.0122 9.14136 70.0244 5.95765 70.0205C4.48222 70.0052 2.7856 69.6973 1.34202 69.9314C0.690698 70.0371 0.55468 70.2028 0.066034 70.6228C-0.153321 71.564 0.203587 72.2775 0.698054 73.0526C1.7118 74.6417 3.91945 77.0294 5.85014 77.4038C11.3178 78.4638 21.6639 77.7886 27.5828 77.781L72.416 77.7678L280.209 77.7123C284.964 77.7742 290.12 78.7194 293.86 75.1095C293.86 75.1095 297.877 70.4348 295.337 69.936C292.797 69.4372 289.859 69.8177 287.271 69.8655C283.886 69.8968 280.502 69.9049 277.118 69.89L214.755 69.8922Z" fill="#FFFFFF"/>
<path d="M1.07211 0.291793C6.26741 -0.0369311 17.9352 -0.321252 22.6327 0.817184C22.9413 0.889447 23.2477 0.970131 23.5516 1.06035C23.8557 1.15061 24.1567 1.25016 24.4549 1.3582C24.7531 1.46604 25.048 1.58282 25.3397 1.70781C25.6311 1.8328 25.9193 1.96626 26.203 2.1082C26.4865 2.24986 26.7661 2.39924 27.0409 2.55742C27.3156 2.7154 27.5853 2.88158 27.8504 3.05546C28.1157 3.22927 28.3762 3.41127 28.6307 3.60039C28.8853 3.78947 29.1346 3.98568 29.3778 4.18925C29.5515 4.33544 29.7216 4.48643 29.8875 4.6414C30.0537 4.79612 30.2159 4.95488 30.3739 5.11796C30.532 5.28115 30.6861 5.4482 30.8358 5.61894C30.9853 5.78988 31.1297 5.96507 31.2703 6.14336C31.4111 6.32155 31.5471 6.50315 31.6786 6.68828C31.8101 6.87351 31.9373 7.06214 32.0594 7.25371C32.1814 7.44549 32.2989 7.64019 32.411 7.83769C32.5228 8.03509 32.6294 8.23538 32.7313 8.43828C32.8334 8.64126 32.9308 8.84659 33.0223 9.05449C33.1138 9.26238 33.1992 9.47295 33.2801 9.68535C33.3607 9.89756 33.4366 10.1118 33.5067 10.3279C33.5767 10.544 33.6413 10.7619 33.7 10.9812C33.759 11.2004 33.8124 11.4213 33.8602 11.6434C33.9078 11.8652 33.9497 12.0882 33.9862 12.3123C34.0225 12.5365 34.0531 12.7616 34.078 12.9871C34.1032 13.213 34.1222 13.4401 34.1356 13.6668C34.4903 18.9422 32.3728 22.5402 29.078 26.3631C33.8094 31.0464 38.2392 32.2277 40.0555 39.743C41.2739 44.7841 39.6329 49.7664 37.0389 54.0613C34.3663 57.1156 31.5102 59.3148 27.5145 60.3191C23.9517 61.2146 3.56281 62.2469 0.8016 60.5066C0.555318 60.3514 0.587962 60.2172 0.519373 59.9353C-0.226887 56.8624 0.131049 52.9644 0.126795 49.7918L0.135584 32.8318L0.163904 13.367C0.171563 9.83862 0.0174871 6.21641 0.268397 2.7C0.33581 1.75511 0.578113 1.09488 1.07211 0.291793ZM20.6092 7.50468C18.7812 6.84112 16.187 6.62529 14.2782 7.0955C11.2498 8.24926 8.99236 9.71436 7.61312 12.8123C6.57124 15.1529 6.40194 17.8763 7.32894 20.283C8.10709 22.3035 9.57879 24.2146 11.6004 25.0789C12.7284 25.5611 14.5153 25.8634 15.3407 26.7635C15.5467 27.7984 15.593 28.6506 15.4959 29.7019C13.469 31.0581 8.54649 28.5573 7.81918 32.0008C7.34375 34.2532 7.58619 52.0414 8.62289 53.5232C9.00766 54.0733 9.42802 54.1415 10.0692 54.2068C13.2605 54.5303 22.1386 54.4407 24.9676 53.6336C28.3333 52.4112 30.704 50.1828 32.2235 46.9314C33.3619 44.4957 32.9868 41.6308 32.0448 39.1971C30.8408 36.086 28.0629 32.6281 24.9452 31.2644C23.933 30.8221 20.1167 30.1984 19.7078 29.3562C19.3396 28.5967 19.5439 27.1325 19.5877 26.2928C22.5756 25.0401 24.888 23.3629 26.1649 20.2527C26.2273 20.1006 26.2859 19.9467 26.3407 19.7918C26.3953 19.6369 26.4461 19.4803 26.493 19.323C26.5398 19.1655 26.5831 19.007 26.6219 18.8475C26.6609 18.6878 26.6957 18.5265 26.7264 18.365C26.7572 18.2036 26.7838 18.0414 26.8065 17.8787C26.8289 17.7159 26.8477 17.5528 26.8621 17.3894C26.8764 17.2256 26.8863 17.0607 26.8924 16.8963C26.8986 16.7323 26.9005 16.5683 26.8983 16.4041C26.896 16.2396 26.8901 16.0749 26.8797 15.9109C26.8692 15.7468 26.8546 15.5831 26.8358 15.4197C26.8171 15.2565 26.7934 15.0938 26.7664 14.9314C26.7397 14.7693 26.7088 14.6076 26.6737 14.4471C26.6386 14.2865 26.5996 14.1269 26.5565 13.9686C26.5134 13.8099 26.467 13.6521 26.4159 13.4959C26.3649 13.3394 26.3096 13.1844 26.2508 13.0311C26.1921 12.8776 26.1289 12.7261 26.0623 12.576C25.9979 12.4302 25.93 12.2857 25.8582 12.1434C25.7866 12.001 25.7108 11.8602 25.6317 11.7215C25.5529 11.5831 25.4706 11.4459 25.3846 11.3113C25.299 11.1771 25.2094 11.0455 25.117 10.9158C25.0244 10.7859 24.929 10.658 24.8299 10.533C24.7309 10.4079 24.6284 10.2856 24.5233 10.1658C24.4181 10.046 24.31 9.92852 24.1991 9.81425C24.088 9.69988 23.9731 9.58795 23.8563 9.47929C23.7396 9.37073 23.6199 9.26533 23.4979 9.16289C23.3755 9.06041 23.2508 8.96119 23.1239 8.86504C22.9966 8.76884 22.8672 8.6756 22.7352 8.58574C22.6033 8.49609 22.469 8.40966 22.3328 8.32695C22.1964 8.24408 22.058 8.1646 21.9178 8.08867C21.7776 8.01298 21.6359 7.94042 21.492 7.87187C21.348 7.80304 21.2018 7.73783 21.0545 7.67656C20.9076 7.6154 20.759 7.55832 20.6092 7.50468Z" fill="#FFFFFF"/>
<path d="M15.6148 10.7281C17.0789 10.6353 18.6364 10.661 19.9464 11.3996C20.0349 11.4503 20.1221 11.5032 20.208 11.5583C20.294 11.6133 20.3786 11.6703 20.4617 11.7293C20.5448 11.7885 20.6264 11.8497 20.7065 11.9128C20.7868 11.9759 20.8654 12.041 20.9424 12.1079C21.0194 12.1749 21.0947 12.2438 21.1682 12.3144C21.2417 12.3849 21.3135 12.4573 21.3835 12.5316C21.4536 12.6058 21.5218 12.6816 21.5882 12.759C21.6546 12.8364 21.719 12.9154 21.7815 12.9961C21.844 13.0768 21.9046 13.1589 21.9632 13.2424C22.0216 13.3261 22.078 13.4111 22.1323 13.4973C22.1866 13.5837 22.2388 13.6713 22.2889 13.7602C22.3389 13.8492 22.3867 13.9393 22.4322 14.0304C22.478 14.1217 22.5214 14.214 22.5624 14.3073C22.6035 14.4007 22.6423 14.495 22.6789 14.5904C22.7154 14.6856 22.7496 14.7817 22.7815 14.8787C22.8134 14.9755 22.8428 15.0731 22.8697 15.1716C23.29 16.7432 23.1298 18.445 22.2598 19.8368C21.2518 21.4489 19.9397 22.0947 18.1392 22.4881C16.8329 22.5493 15.5949 22.5947 14.3661 22.0723C12.8542 21.4299 11.606 20.2366 10.9933 18.7033C10.9588 18.6165 10.9265 18.529 10.8965 18.4407C10.8665 18.3523 10.8387 18.2632 10.8132 18.1733C10.7876 18.0836 10.7644 17.9934 10.7433 17.9025C10.7223 17.8114 10.7035 17.7199 10.687 17.628C10.6706 17.5361 10.6565 17.4438 10.6447 17.3513C10.6328 17.2588 10.6233 17.166 10.6162 17.0728C10.609 16.9797 10.6042 16.8865 10.6018 16.7931C10.5993 16.7 10.5992 16.6068 10.6015 16.5134C10.6037 16.4201 10.6083 16.3269 10.6153 16.2337C10.6222 16.1406 10.6315 16.0478 10.6431 15.9552C10.6548 15.8625 10.6687 15.7702 10.6848 15.6783C10.7011 15.5864 10.7197 15.495 10.7406 15.4041C10.7614 15.313 10.7845 15.2225 10.8098 15.1327C10.8351 15.0428 10.8627 14.9536 10.8925 14.8652C10.9223 14.7768 10.9544 14.6891 10.9887 14.6023C11.023 14.5155 11.0595 14.4297 11.0981 14.3447C12.0095 12.3006 13.6332 11.5176 15.6148 10.7281Z" fill="#FFFFFF"/>
<path d="M11.3723 33.9467C12.8964 34.0098 14.4319 33.8931 15.9548 33.8217C16.5329 38.3289 17.4453 42.1667 19.2602 46.3436L17.9376 49.2795C17.9171 49.3012 17.8981 49.3242 17.8763 49.3444C16.2244 50.8817 13.5527 50.3686 11.4133 50.3416L11.3723 33.9467Z" fill="#FFFFFF"/>
<path d="M20.2779 33.6844C22.6746 34.6607 24.7762 35.6032 26.584 37.5489C28.0472 39.1236 29.045 41.2055 28.9173 43.392C28.7926 45.5274 27.6024 47.4686 26.0454 48.8665C24.9775 49.5319 23.7422 50.2644 22.4503 50.2145L22.0765 49.7524C22.1179 48.3918 22.9751 47.0598 23.5765 45.8634C21.4981 42.8574 19.9271 37.3089 20.2779 33.6844Z" fill="#FFFFFF"/>
<path d="M99.1757 5.59009C101.853 5.56375 105.302 5.09931 107.879 5.75156C109.181 6.0812 110.107 7.09524 110.977 8.06671C115.253 12.8444 118.923 18.6739 122.73 23.8661C125.81 28.0663 129.372 32.1651 132.068 36.6052C132.024 31.14 132.119 25.6635 132.032 20.2017C131.975 16.6308 131.252 12.0387 131.955 8.62124C132.174 7.56061 132.59 6.6066 133.577 6.04075C135.181 5.12106 142.059 5.31498 143.897 5.96263C144.439 6.15319 145.052 6.51194 145.26 7.06553C145.778 8.44017 145.763 53.1931 145.615 57.9466C145.591 58.7177 145.456 59.32 145.138 60.0241C144.356 60.6708 143.998 60.733 143.033 60.9223L136.02 60.9833C135.129 60.5418 134.278 60.0636 133.573 59.3513C130.274 56.0135 127.487 51.6117 124.633 47.8689C120.119 41.9469 115.429 36.1662 110.925 30.2335C111.08 35.1065 111.832 56.7301 110.809 60.0985C110.211 60.6846 109.597 60.8917 108.783 60.964C106.269 61.1876 99.8267 61.4471 97.9913 59.9656C97.5416 59.1656 97.5881 58.1154 97.56 57.2135C97.2472 47.2163 97.6123 37.1263 97.5964 27.1181C97.5866 20.8677 96.9347 14.1214 97.6641 7.94816C97.813 6.68871 98.2297 6.33915 99.1757 5.59009Z" fill="#FFFFFF"/>
<path d="M153.645 5.94943C154.015 5.87979 154.387 5.82147 154.76 5.77449C157.738 5.40043 186.849 5.61702 187.385 6.10169C188.129 6.77415 188.24 8.08476 188.252 9.01733C188.273 10.7253 188.626 15.045 187.425 16.219C186.086 17.5278 169.077 16.8951 166.083 16.8982C166.136 17.0155 166.234 17.2064 166.27 17.3418C166.718 18.991 166.644 25.7686 165.835 27.3151C169.07 27.3001 182.691 26.5127 184.695 28.3022C185.081 28.6468 185.151 29.5757 185.167 30.0763C185.228 31.9969 185.697 36.1484 184.327 37.5531C183.172 38.7411 168.476 38.1373 165.961 38.111C166.102 38.345 166.2 38.5095 166.273 38.7767C166.65 40.1967 166.623 43.0051 165.848 44.2823C165.952 44.4428 166.05 44.6034 166.126 44.7798C166.708 46.1254 166.494 48.4522 165.988 49.7867C169.649 49.9634 184.098 49.3501 186.273 49.9604C187.112 50.1966 187.835 50.6678 188.23 51.472C189.036 53.1236 188.828 58.2205 188.184 59.9573C188.047 60.3273 188.096 60.3846 187.725 60.547C185.697 61.4303 155.784 61.2336 153.719 60.4713C153.468 60.2045 153.284 59.9141 153.186 59.5575C152.221 56.0557 152.953 39.6204 152.953 34.9505C152.95 26.2355 152.441 17.3394 152.965 8.65153C153.026 7.6629 153.176 6.83635 153.645 5.94943Z" fill="#FFFFFF"/>
</svg>
