<svg width="298" height="78" viewBox="0 0 298 78" fill="none" xmlns="http://www.w3.org/2000/svg">
<path d="M262.07 7.3719C270.198 6.34622 278.112 7.31688 285.065 11.8416C290.951 15.6727 295.253 21.5093 296.711 28.4178C298.314 36.0124 296.824 43.5937 292.582 50.0701C287.746 57.454 280.477 61.5563 271.983 63.3387C271.609 63.4153 271.235 63.4746 270.855 63.5037C261.65 64.2099 253.491 61.4415 246.618 55.2782C239.745 49.1148 237.936 39.0863 239.553 28.326C240.191 24.079 240.593 21.4853 242.86 17.8377C247.37 10.582 254.339 8.49014 262.07 7.3719ZM267.658 18.4188C267.386 18.4192 267.113 18.4269 266.841 18.4403C266.569 18.454 266.297 18.4738 266.025 18.5008C265.754 18.5278 265.483 18.562 265.214 18.6024C264.944 18.6426 264.676 18.6895 264.408 18.743C264.142 18.7963 263.877 18.8554 263.613 18.9217C263.35 18.9881 263.088 19.0614 262.828 19.1405C262.568 19.2196 262.31 19.3047 262.055 19.3963C261.799 19.4882 261.545 19.5861 261.294 19.6903C261.043 19.7945 260.794 19.9049 260.549 20.0213C260.303 20.1377 260.061 20.2602 259.821 20.3885C259.582 20.5168 259.345 20.651 259.112 20.7908C258.879 20.9307 258.65 21.0763 258.424 21.2274C258.198 21.3786 257.976 21.5351 257.758 21.6971C257.54 21.859 257.325 22.0267 257.115 22.1991C256.905 22.3716 256.699 22.5488 256.498 22.7313C256.297 22.9138 256.1 23.1016 255.908 23.2938C255.716 23.4858 255.529 23.6824 255.347 23.8836C255.164 24.0851 254.987 24.291 254.815 24.5008C254.642 24.711 254.474 24.9261 254.313 25.1444C254.151 25.3627 253.994 25.5846 253.843 25.8104C253.692 26.0362 253.547 26.2657 253.407 26.4989C253.267 26.7319 253.133 26.9682 253.005 27.2078C252.877 27.4475 252.755 27.69 252.639 27.9354C252.523 28.181 252.412 28.4296 252.308 28.6805C252.203 28.9317 252.106 29.1855 252.014 29.4412C251.922 29.697 251.837 29.9548 251.758 30.2147C251.679 30.4747 251.606 30.7372 251.54 31.0008C251.474 31.2644 251.414 31.5294 251.361 31.7957C251.308 32.0621 251.262 32.3296 251.222 32.5985C251.182 32.8673 251.148 33.1376 251.121 33.408C251.094 33.6783 251.074 33.9492 251.061 34.2205C251.047 34.4918 251.04 34.7633 251.04 35.035C251.04 35.3067 251.046 35.5788 251.059 35.8504C251.072 36.1218 251.092 36.3926 251.118 36.6629C251.145 36.9335 251.177 37.2037 251.217 37.4725C251.256 37.7413 251.302 38.0089 251.355 38.2752C251.407 38.5417 251.467 38.8072 251.532 39.0711C251.598 39.3348 251.67 39.5971 251.748 39.8573C251.827 40.1172 251.912 40.375 252.003 40.6307C252.094 40.8868 252.192 41.1412 252.296 41.3924C252.399 41.6435 252.508 41.8921 252.624 42.1375C252.74 42.3834 252.862 42.627 252.989 42.867C253.117 43.107 253.251 43.3437 253.391 43.577C253.53 43.8102 253.675 44.0403 253.825 44.2664C253.976 44.4926 254.131 44.715 254.293 44.9334C254.454 45.152 254.621 45.3664 254.793 45.577C254.965 45.7873 255.142 45.9935 255.324 46.1951C255.506 46.3969 255.693 46.5944 255.885 46.7869C256.077 46.9795 256.274 47.1674 256.475 47.3504C256.675 47.5332 256.88 47.711 257.09 47.8836C257.299 48.0565 257.514 48.2242 257.731 48.3866C257.949 48.5488 258.171 48.7068 258.397 48.8582C258.622 49.0099 258.851 49.1555 259.084 49.2957C259.316 49.4359 259.553 49.5704 259.792 49.6991C260.031 49.8279 260.274 49.9513 260.52 50.0682C260.765 50.185 261.013 50.2955 261.264 50.4002C261.515 50.5048 261.768 50.6038 262.023 50.6961C262.279 50.7884 262.537 50.8744 262.797 50.9539C263.057 51.0336 263.318 51.1067 263.581 51.1737C263.845 51.2404 264.11 51.3004 264.376 51.3543C264.643 51.408 264.91 51.4561 265.179 51.4969C265.447 51.5376 265.717 51.571 265.987 51.5985C266.258 51.6261 266.529 51.6469 266.801 51.661C267.072 51.6753 267.343 51.6834 267.615 51.6844C267.887 51.6852 268.158 51.679 268.43 51.6668C268.701 51.6543 268.973 51.6359 269.243 51.6102C269.514 51.5846 269.784 51.5525 270.053 51.5135C270.322 51.4746 270.59 51.4289 270.856 51.3768C271.124 51.3245 271.39 51.2661 271.654 51.201C271.919 51.1356 272.182 51.0634 272.443 50.9852C272.705 50.9072 272.964 50.8224 273.221 50.7313C273.478 50.6404 273.732 50.5437 273.984 50.4403C274.237 50.3369 274.487 50.2271 274.733 50.1112C274.98 49.9954 275.224 49.8735 275.465 49.7459C275.705 49.6183 275.943 49.4849 276.177 49.3455C276.411 49.2064 276.642 49.0608 276.869 48.91C277.096 48.7593 277.32 48.6029 277.54 48.4412C277.759 48.2795 277.974 48.1123 278.186 47.9403C278.397 47.7679 278.604 47.5906 278.807 47.408C279.009 47.2256 279.207 47.0377 279.4 46.8455C279.593 46.6537 279.782 46.457 279.965 46.2557C280.149 46.0541 280.328 45.8476 280.501 45.6375C280.675 45.4271 280.843 45.2125 281.006 44.994C281.169 44.7755 281.327 44.5532 281.479 44.327C281.631 44.1007 281.777 43.871 281.918 43.6375C282.059 43.404 282.193 43.1665 282.322 42.9266C282.451 42.6865 282.574 42.4433 282.691 42.1971C282.809 41.9511 282.92 41.7024 283.024 41.451C283.129 41.1994 283.228 40.9448 283.32 40.6883C283.413 40.4318 283.499 40.1735 283.579 39.9129C283.659 39.6521 283.731 39.3891 283.798 39.1248C283.865 38.8606 283.926 38.5951 283.98 38.328C284.033 38.0606 284.08 37.7918 284.12 37.5223C284.161 37.2527 284.195 36.982 284.222 36.7108C284.249 36.4396 284.269 36.1675 284.283 35.8953C284.297 35.6232 284.304 35.3505 284.305 35.078C284.305 34.8054 284.299 34.5329 284.286 34.2606C284.273 33.9884 284.254 33.7163 284.228 33.4451C284.201 33.1738 284.168 32.9033 284.128 32.6336C284.088 32.364 284.042 32.0955 283.989 31.828C283.936 31.5606 283.877 31.2945 283.812 31.0301C283.746 30.7658 283.673 30.5029 283.594 30.242C283.515 29.981 283.431 29.7214 283.339 29.4647C283.247 29.208 283.149 28.9539 283.045 28.702C282.941 28.45 282.83 28.2004 282.714 27.9539C282.598 27.7076 282.476 27.4639 282.348 27.2235C282.219 26.9829 282.084 26.7455 281.944 26.5116C281.805 26.2776 281.659 26.0468 281.508 25.8201C281.357 25.5935 281.2 25.3702 281.038 25.1512C280.876 24.932 280.708 24.7174 280.535 24.5067C280.362 24.2959 280.184 24.0897 280.001 23.8875C279.818 23.6855 279.63 23.4876 279.438 23.2948C279.245 23.1021 279.048 22.9144 278.846 22.7313C278.644 22.5482 278.437 22.37 278.227 22.1971C278.016 22.0241 277.801 21.8565 277.582 21.6942C277.363 21.5316 277.141 21.3739 276.914 21.2225C276.687 21.071 276.457 20.9251 276.223 20.785C275.989 20.645 275.752 20.5111 275.512 20.3826C275.271 20.2541 275.028 20.131 274.781 20.0145C274.535 19.8979 274.285 19.7875 274.033 19.6834C273.781 19.5791 273.527 19.4811 273.271 19.3895C273.014 19.2978 272.755 19.2127 272.494 19.1336C272.233 19.0546 271.971 18.982 271.706 18.9158C271.442 18.8497 271.176 18.79 270.908 18.7371C270.641 18.684 270.372 18.6373 270.103 18.5975C269.833 18.5577 269.562 18.5245 269.291 18.4979C269.02 18.4714 268.748 18.4514 268.476 18.4383C268.204 18.425 267.931 18.4186 267.658 18.4188Z" fill="#1F2C2D"/>
<path d="M196.579 5.83363C197.778 5.37536 218.206 5.59672 220.521 5.92543C223.293 6.3182 226.011 7.12738 228.474 8.46938C228.721 8.60232 228.965 8.74118 229.206 8.88637C229.447 9.03159 229.685 9.18321 229.92 9.34047C230.153 9.49753 230.382 9.66004 230.606 9.82875C230.831 9.99729 231.051 10.1716 231.268 10.3512C231.484 10.5307 231.697 10.7165 231.905 10.9069C232.111 11.0971 232.314 11.2924 232.512 11.4928C232.708 11.6933 232.9 11.8988 233.088 12.109C233.276 12.319 233.457 12.5336 233.633 12.7526C233.809 12.972 233.98 13.1957 234.146 13.4235C234.31 13.6513 234.469 13.8832 234.623 14.1188C234.776 14.3547 234.923 14.5945 235.064 14.8375C235.207 15.0806 235.343 15.3271 235.471 15.5768C235.6 15.8268 235.722 16.0805 235.839 16.3366C235.955 16.5928 236.066 16.8514 236.17 17.1129C236.272 17.3745 236.368 17.6394 236.458 17.9059C236.548 18.1724 236.631 18.441 236.709 18.7116C237.925 23.0449 237.444 28.2658 235.195 32.1881C233.146 35.7661 229.874 38.0323 225.934 39.0963C226.133 39.2333 226.317 39.3794 226.492 39.5426C227.821 40.7687 231.899 48.2514 231.951 49.8307C232.291 49.5474 235 57.4994 234 58.4997C231.304 61.1955 226.248 61.4592 224.314 59.7262C220.551 56.3535 216.535 44.7015 212.828 40.2457C211.171 40.3042 209.504 40.4006 207.844 40.4C208.851 41.8947 208.511 57.2156 208.076 59.7174C208.024 60.0161 207.923 60.2971 207.801 60.5729C206.565 61.2194 197.807 61.297 196.331 60.7887C195.975 60.6662 195.702 60.4515 195.405 60.2291C195.194 60.0683 194.97 59.9181 194.759 59.7545C195.727 57.6811 195.149 23.4288 195.146 18.6696C195.143 15.201 194.492 10.1768 195.688 6.96254C195.88 6.44247 196.015 6.04897 196.579 5.83363ZM219.308 17.1705C216.017 16.1777 211.986 16.6047 208.564 16.6764C206.958 20.4305 209.697 26.9931 207.84 30.5856C207.816 30.6346 207.791 30.6844 207.767 30.734C211.269 30.7711 218.836 31.6727 221.513 29.0582C221.642 28.931 221.749 28.7783 221.844 28.6247C223.012 28.0163 223.652 27.0142 224.059 25.7789C224.617 24.0786 224.341 21.9267 223.514 20.3551C222.641 18.6968 221.063 17.7008 219.308 17.1705Z" fill="#1F2C2D"/>
<path d="M57.4619 5.37298C65.5898 4.34735 73.5023 5.31883 80.4551 9.84368C86.3415 13.6748 90.6446 19.5104 92.1025 26.4189C93.7053 34.0135 92.2145 41.5948 87.9727 48.0712C83.1365 55.455 75.8679 59.5574 67.374 61.3398C66.9998 61.4163 66.6259 61.4757 66.2451 61.5048C57.0402 62.211 48.9739 59.2266 42.0088 53.2792C43.62 48.3428 44.684 43.5993 43.5547 38.4218C42.4386 33.3029 39.3199 29.1309 34.9434 26.3271C36.6246 22.8043 37.7913 19.7288 38.251 15.8388C43.449 10.0669 49.7308 6.4912 57.4619 5.37298ZM63.0488 16.4199C62.7762 16.4203 62.5037 16.4279 62.2314 16.4413C61.9592 16.455 61.6872 16.4749 61.416 16.5019C61.1446 16.5289 60.8741 16.5631 60.6045 16.6034C60.3349 16.6436 60.0661 16.6906 59.7988 16.7441C59.5325 16.7974 59.2673 16.8565 59.0039 16.9228C58.7403 16.9892 58.4787 17.0625 58.2188 17.1415C57.9589 17.2207 57.7009 17.3057 57.4453 17.3974C57.1894 17.4893 56.9357 17.5881 56.6846 17.6923C56.4336 17.7965 56.1849 17.906 55.9395 18.0224C55.6938 18.1388 55.4513 18.2613 55.2119 18.3896C54.9723 18.5179 54.736 18.652 54.5029 18.7919C54.27 18.9318 54.0403 19.0774 53.8145 19.2284C53.5886 19.3796 53.3666 19.5362 53.1484 19.6982C52.9302 19.8601 52.7157 20.0278 52.5059 20.2001C52.2961 20.3725 52.0907 20.55 51.8896 20.7324C51.6882 20.915 51.4908 21.1027 51.2988 21.2949C51.1068 21.4869 50.9196 21.6835 50.7373 21.8847C50.5549 22.0862 50.3774 22.292 50.2051 22.5019C50.0327 22.7121 49.865 22.9271 49.7031 23.1454C49.5415 23.3637 49.3855 23.5857 49.2344 23.8115C49.0835 24.0373 48.9375 24.2667 48.7979 24.4999C48.658 24.7328 48.5245 24.9694 48.3965 25.2089C48.2683 25.4487 48.1455 25.6919 48.0293 25.9374C47.9133 26.1828 47.8032 26.4309 47.6992 26.6816C47.5951 26.9327 47.497 27.1867 47.4053 27.4423C47.3136 27.6982 47.2275 27.9567 47.1484 28.2167C47.0697 28.4765 46.997 28.7385 46.9307 29.0019C46.8645 29.2655 46.805 29.5305 46.752 29.7968C46.6987 30.0633 46.6523 30.3315 46.6123 30.6005C46.5723 30.8692 46.5387 31.1389 46.5117 31.4091C46.485 31.6794 46.4648 31.9503 46.4512 32.2216C46.4377 32.493 46.4309 32.7652 46.4307 33.037C46.4303 33.3086 46.4361 33.5801 46.4492 33.8515C46.4623 34.1229 46.4825 34.3937 46.5088 34.664C46.5352 34.9346 46.568 35.2048 46.6074 35.4736C46.647 35.7424 46.6934 36.01 46.7461 36.2763C46.7988 36.5428 46.8574 36.8083 46.9229 37.0722C46.9887 37.3359 47.0612 37.5981 47.1396 37.8583C47.2183 38.1182 47.3026 38.3762 47.3936 38.6318C47.4849 38.8879 47.5829 39.1423 47.6865 39.3935C47.79 39.6447 47.8999 39.893 48.0156 40.1386C48.1314 40.3845 48.2533 40.6281 48.3809 40.8681C48.5087 41.1079 48.642 41.3449 48.7812 41.5781C48.9205 41.8113 49.0653 42.0413 49.2158 42.2675C49.3663 42.4937 49.5221 42.7161 49.6836 42.9345C49.8448 43.153 50.0117 43.3675 50.1836 43.5781C50.3554 43.7884 50.5327 43.9946 50.7148 44.1962C50.8968 44.398 51.0837 44.5955 51.2754 44.788C51.4672 44.9806 51.6642 45.1685 51.8652 45.3515C52.0661 45.5344 52.2717 45.7119 52.4814 45.8847C52.6909 46.0577 52.9042 46.2262 53.1221 46.3886C53.34 46.5509 53.5624 46.7078 53.7881 46.8593C54.0135 47.011 54.2428 47.1566 54.4756 47.2968C54.7081 47.4371 54.9442 47.5715 55.1836 47.7001C55.4228 47.829 55.6648 47.9524 55.9102 48.0693C56.1552 48.186 56.4036 48.2966 56.6543 48.4013C56.9051 48.5059 57.1586 48.6049 57.4141 48.6972C57.6697 48.7895 57.9277 48.8754 58.1875 48.955C58.4474 49.0347 58.7095 49.1078 58.9727 49.1747C59.2359 49.2415 59.5006 49.3015 59.7666 49.3554C60.0331 49.4091 60.3008 49.4572 60.5693 49.498C60.8381 49.5387 61.1085 49.572 61.3789 49.5995C61.6492 49.6271 61.92 49.6479 62.1914 49.662C62.4626 49.6763 62.734 49.6845 63.0059 49.6855C63.2775 49.6863 63.5491 49.6801 63.8203 49.6679C64.0917 49.6554 64.3632 49.637 64.6338 49.6113C64.9044 49.5857 65.1744 49.5536 65.4434 49.5146C65.7123 49.4757 65.9803 49.43 66.2471 49.3779C66.5144 49.3256 66.7804 49.2671 67.0449 49.2021C67.3096 49.1367 67.5728 49.0645 67.834 48.9863C68.0953 48.9083 68.3543 48.8235 68.6113 48.7324C68.8683 48.6415 69.123 48.5448 69.375 48.4413C69.6273 48.3379 69.8773 48.2281 70.124 48.1122C70.3709 47.9965 70.6147 47.8746 70.8555 47.747C71.0962 47.6193 71.3341 47.4861 71.5684 47.3466C71.8027 47.2074 72.0336 47.0619 72.2607 46.9111C72.4878 46.7604 72.7111 46.604 72.9307 46.4423C73.1499 46.2806 73.365 46.1134 73.5762 45.9413C73.7875 45.769 73.9947 45.5917 74.1973 45.4091C74.3997 45.2267 74.5976 45.0388 74.791 44.8466C74.9841 44.6546 75.1729 44.4583 75.3564 44.2568C75.5402 44.0552 75.7182 43.8487 75.8916 43.6386C76.0652 43.4282 76.2335 43.2135 76.3965 42.995C76.5595 42.7766 76.7173 42.5543 76.8691 42.3281C77.0211 42.1018 77.1678 41.8721 77.3086 41.6386C77.4495 41.405 77.5838 41.1676 77.7129 40.9277C77.8419 40.6875 77.9651 40.4444 78.082 40.1982C78.1993 39.9521 78.3112 39.7036 78.416 39.4521C78.5209 39.2005 78.6196 38.9459 78.7119 38.6894C78.8042 38.433 78.8901 38.1745 78.9697 37.914C79.0495 37.6532 79.1229 37.3902 79.1895 37.1259C79.2562 36.8618 79.3165 36.5962 79.3701 36.329C79.4238 36.0616 79.4711 35.7929 79.5117 35.5234C79.5521 35.2538 79.5851 34.983 79.6123 34.7118C79.6395 34.4407 79.6609 34.1686 79.6748 33.8964C79.6885 33.6243 79.6947 33.3516 79.6953 33.079C79.6957 32.8065 79.6899 32.534 79.6768 32.2617C79.664 31.9895 79.6446 31.7174 79.6182 31.4462C79.5919 31.1749 79.5581 30.9044 79.5186 30.6347C79.4789 30.3651 79.4328 30.0966 79.3799 29.829C79.327 29.5616 79.2679 29.2956 79.2021 29.0312C79.1362 28.7669 79.0641 28.5039 78.9854 28.2431C78.9065 27.9821 78.8212 27.7225 78.7295 27.4658C78.638 27.2091 78.5396 26.955 78.4355 26.7031C78.3316 26.4511 78.2219 26.2015 78.1055 25.955C77.9891 25.7086 77.8665 25.4651 77.7383 25.2245C77.61 24.984 77.476 24.7465 77.3359 24.5126C77.196 24.2786 77.0498 24.0479 76.8984 23.8212C76.7472 23.5946 76.5908 23.3713 76.4287 23.1523C76.2664 22.9331 76.0984 22.7185 75.9258 22.5077C75.753 22.297 75.5746 22.0908 75.3916 21.8886C75.2086 21.6866 75.0209 21.4886 74.8281 21.2958C74.6356 21.1031 74.4382 20.9155 74.2363 20.7324C74.0344 20.5492 73.8279 20.3711 73.6172 20.1982C73.4066 20.0252 73.1917 19.8576 72.9727 19.6952C72.7538 19.5326 72.5314 19.375 72.3047 19.2236C72.078 19.0721 71.8472 18.9262 71.6133 18.7861C71.3797 18.6461 71.1425 18.5122 70.9023 18.3837C70.6617 18.2552 70.4182 18.1321 70.1719 18.0156C69.9254 17.899 69.6758 17.7886 69.4238 17.6845C69.1721 17.5802 68.9177 17.4822 68.6611 17.3906C68.4045 17.2989 68.1455 17.2138 67.8848 17.1347C67.6238 17.0557 67.3611 16.9831 67.0967 16.9169C66.8322 16.8507 66.5661 16.7911 66.2988 16.7382C66.0313 16.6851 65.7627 16.6384 65.4932 16.5986C65.2234 16.5588 64.9528 16.5256 64.6816 16.499C64.4102 16.4725 64.1385 16.4525 63.8662 16.4394C63.594 16.4261 63.3214 16.4197 63.0488 16.4199Z" fill="#1F2C2D"/>
<path d="M214.755 69.8921L15.5085 69.9837C12.325 70.0121 9.14136 70.0243 5.95765 70.0204C4.48222 70.0051 2.7856 69.6972 1.34202 69.9313C0.690698 70.037 0.55468 70.2027 0.066034 70.6227C-0.153321 71.5639 0.203587 72.2774 0.698054 73.0525C1.7118 74.6416 3.91945 77.0293 5.85014 77.4037C11.3178 78.4637 21.6639 77.7885 27.5828 77.7809L72.416 77.7677L280.209 77.7122C284.964 77.7741 290.12 78.7193 293.86 75.1094C293.86 75.1094 297.877 70.4347 295.337 69.9359C292.797 69.4371 289.859 69.8176 287.271 69.8654C283.886 69.8967 280.502 69.9048 277.118 69.8899L214.755 69.8921Z" fill="white"/>
<path d="M1.07202 0.291016C6.2673 -0.0377096 17.9351 -0.322033 22.6326 0.816406C22.9412 0.888684 23.2475 0.970307 23.5515 1.06055C23.8555 1.15078 24.1568 1.24942 24.4548 1.35742C24.7529 1.46523 25.048 1.58209 25.3396 1.70703C25.631 1.83203 25.9192 1.96547 26.2029 2.10742C26.4865 2.24913 26.7659 2.39937 27.0408 2.55762C27.3155 2.7156 27.5852 2.88177 27.8503 3.05566C28.1156 3.22947 28.3761 3.41147 28.6306 3.60059C28.8852 3.78965 29.1346 3.9859 29.3777 4.18945C29.5514 4.33561 29.7215 4.48666 29.8875 4.6416C30.0536 4.79631 30.2158 4.95509 30.3738 5.11816C30.5319 5.28134 30.686 5.44842 30.8357 5.61914C30.985 5.78989 31.1297 5.9645 31.2703 6.14258C31.4111 6.32088 31.5479 6.50323 31.6794 6.68848C31.811 6.87363 31.9373 7.06243 32.0593 7.25391C32.1813 7.44563 32.2988 7.64045 32.4109 7.83789C32.5227 8.03526 32.6294 8.23561 32.7312 8.43848C32.8333 8.64145 32.9307 8.84681 33.0222 9.05469C33.1137 9.26253 33.1992 9.4732 33.28 9.68555C33.3606 9.89756 33.4366 10.1113 33.5066 10.3271C33.5766 10.5432 33.6412 10.7611 33.7 10.9805C33.7589 11.1996 33.8123 11.4205 33.8601 11.6426C33.9077 11.8646 33.9496 12.0882 33.9861 12.3125C34.0225 12.5368 34.053 12.7616 34.0779 12.9873C34.1031 13.2131 34.1231 13.4394 34.1365 13.666C34.4913 18.9415 32.3736 22.5394 29.0789 26.3623C33.8103 31.0456 38.2402 32.2276 40.0564 39.7432C41.2747 44.7842 39.6328 49.7657 37.0388 54.0605C34.3661 57.1149 31.5103 59.315 27.5144 60.3193C23.9514 61.2148 3.56298 62.247 0.801514 60.5068C0.555199 60.3515 0.587912 60.2165 0.519287 59.9346C-0.226859 56.8615 0.130998 52.9636 0.126709 49.791L0.135498 32.8311L0.163818 13.3662C0.171464 9.83801 0.0183994 6.21643 0.269287 2.7002C0.336687 1.75508 0.577862 1.0943 1.07202 0.291016ZM20.6091 7.50391C18.781 6.84033 16.187 6.62544 14.2781 7.0957C11.2497 8.24946 8.99324 9.7146 7.61401 12.8125C6.57213 15.1531 6.40182 17.8764 7.32886 20.2832C8.10702 22.3036 9.57876 24.2148 11.6003 25.0791C12.7283 25.5613 14.5151 25.8627 15.3406 26.7627C15.5467 27.7977 15.5929 28.6499 15.4958 29.7012C13.469 31.0573 8.54667 28.557 7.81909 32C7.34362 34.2518 7.58706 52.0406 8.62378 53.5225C9.00851 54.0725 9.42805 54.1408 10.0691 54.2061C13.2603 54.5295 22.1383 54.4409 24.9675 53.6338C28.3331 52.4114 30.7039 50.1829 32.2234 46.9316C33.3619 44.4958 32.9878 41.6301 32.0457 39.1963C30.8417 36.0852 28.0628 32.6283 24.9451 31.2646C23.9329 30.8222 20.1162 30.1977 19.7078 29.3555C19.3398 28.5959 19.5438 27.1325 19.5876 26.293C22.5755 25.0403 24.8879 23.363 26.1648 20.2529C26.2273 20.1008 26.2858 19.947 26.3406 19.792C26.3953 19.637 26.446 19.4806 26.4929 19.3232C26.5397 19.1655 26.583 19.0064 26.6218 18.8467C26.6608 18.6871 26.6956 18.5266 26.7263 18.3652C26.7571 18.2037 26.7837 18.0416 26.8064 17.8789C26.8288 17.7159 26.8476 17.5523 26.8621 17.3887C26.8764 17.2249 26.8862 17.0608 26.8923 16.8965C26.8985 16.7323 26.9004 16.5677 26.8982 16.4033C26.8959 16.239 26.89 16.075 26.8796 15.9111C26.8691 15.7471 26.8545 15.5832 26.8357 15.4199C26.817 15.2569 26.7943 15.0939 26.7673 14.9316C26.7406 14.7695 26.7096 14.6078 26.6746 14.4473C26.6395 14.2867 26.5995 14.1272 26.5564 13.9688C26.5133 13.8101 26.4668 13.6522 26.4158 13.4961C26.3648 13.3396 26.3095 13.1846 26.2507 13.0312C26.1919 12.8776 26.1289 12.7255 26.0623 12.5752C25.9978 12.4294 25.9299 12.285 25.8582 12.1426C25.7865 12.0002 25.7107 11.8594 25.6316 11.7207C25.5529 11.5824 25.4704 11.446 25.3845 11.3115C25.2988 11.1771 25.2094 11.0449 25.1169 10.915C25.0244 10.7853 24.9288 10.6581 24.8298 10.5332C24.7307 10.408 24.6284 10.2849 24.5232 10.165C24.4179 10.0452 24.31 9.9278 24.199 9.81348C24.088 9.69922 23.9739 9.58805 23.8572 9.47949C23.7404 9.37085 23.6209 9.26462 23.4988 9.16211C23.3765 9.05965 23.2517 8.96039 23.1248 8.86426C22.9975 8.76806 22.8671 8.67482 22.7351 8.58496C22.6035 8.49552 22.4696 8.40969 22.3337 8.32715C22.1972 8.24423 22.058 8.16387 21.9177 8.08789C21.7776 8.01228 21.6356 7.94055 21.4919 7.87207C21.3479 7.80324 21.2017 7.73803 21.0544 7.67676C20.9074 7.61556 20.7591 7.55757 20.6091 7.50391Z" fill="white"/>
<path d="M15.6148 10.7278C17.0789 10.635 18.6364 10.6607 19.9464 11.3993C20.0349 11.45 20.1221 11.5029 20.208 11.558C20.294 11.613 20.3786 11.67 20.4617 11.729C20.5448 11.7882 20.6264 11.8494 20.7065 11.9125C20.7868 11.9756 20.8654 12.0407 20.9424 12.1076C21.0194 12.1746 21.0947 12.2435 21.1682 12.3141C21.2417 12.3846 21.3135 12.457 21.3835 12.5313C21.4536 12.6055 21.5218 12.6813 21.5882 12.7587C21.6546 12.8361 21.719 12.9151 21.7815 12.9958C21.844 13.0765 21.9046 13.1586 21.9632 13.2421C22.0216 13.3258 22.078 13.4108 22.1323 13.497C22.1866 13.5834 22.2388 13.671 22.2889 13.7599C22.3389 13.8489 22.3867 13.939 22.4322 14.0301C22.478 14.1214 22.5214 14.2137 22.5624 14.307C22.6035 14.4004 22.6423 14.4947 22.6789 14.5901C22.7154 14.6853 22.7496 14.7814 22.7815 14.8784C22.8134 14.9752 22.8428 15.0728 22.8697 15.1713C23.29 16.7429 23.1298 18.4447 22.2598 19.8365C21.2518 21.4486 19.9397 22.0944 18.1392 22.4878C16.8329 22.549 15.5949 22.5944 14.3661 22.072C12.8542 21.4296 11.606 20.2363 10.9933 18.703C10.9588 18.6162 10.9265 18.5287 10.8965 18.4404C10.8665 18.352 10.8387 18.2629 10.8132 18.173C10.7876 18.0833 10.7644 17.9931 10.7433 17.9022C10.7223 17.8111 10.7035 17.7196 10.687 17.6277C10.6706 17.5358 10.6565 17.4435 10.6447 17.351C10.6328 17.2585 10.6233 17.1657 10.6162 17.0725C10.609 16.9794 10.6042 16.8862 10.6018 16.7928C10.5993 16.6997 10.5992 16.6065 10.6015 16.5131C10.6037 16.4198 10.6083 16.3266 10.6153 16.2334C10.6222 16.1403 10.6315 16.0475 10.6431 15.9549C10.6548 15.8622 10.6687 15.7699 10.6848 15.678C10.7011 15.5861 10.7197 15.4947 10.7406 15.4038C10.7614 15.3127 10.7845 15.2222 10.8098 15.1324C10.8351 15.0425 10.8627 14.9533 10.8925 14.8649C10.9223 14.7765 10.9544 14.6888 10.9887 14.602C11.023 14.5152 11.0595 14.4294 11.0981 14.3444C12.0095 12.3003 13.6332 11.5173 15.6148 10.7278Z" fill="white"/>
<path d="M11.3723 33.9465C12.8964 34.0096 14.4319 33.8929 15.9548 33.8215C16.5329 38.3287 17.4453 42.1665 19.2602 46.3434L17.9376 49.2793C17.9171 49.301 17.8981 49.324 17.8763 49.3442C16.2244 50.8815 13.5527 50.3684 11.4133 50.3414L11.3723 33.9465Z" fill="white"/>
<path d="M20.2779 33.6843C22.6746 34.6606 24.7762 35.603 26.584 37.5487C28.0472 39.1234 29.045 41.2054 28.9173 43.3919C28.7926 45.5273 27.6024 47.4684 26.0454 48.8663C24.9775 49.5317 23.7422 50.2642 22.4503 50.2143L22.0765 49.7523C22.1179 48.3917 22.9751 47.0597 23.5765 45.8633C21.4981 42.8573 19.9271 37.3088 20.2779 33.6843Z" fill="white"/>
<path d="M99.1757 5.58985C101.853 5.56351 105.302 5.09906 107.879 5.75131C109.181 6.08095 110.107 7.095 110.977 8.06647C115.253 12.8441 118.923 18.6736 122.73 23.8658C125.81 28.066 129.372 32.1648 132.068 36.6049C132.024 31.1397 132.119 25.6632 132.032 20.2014C131.975 16.6305 131.252 12.0384 131.955 8.62099C132.174 7.56036 132.59 6.60636 133.577 6.04051C135.181 5.12082 142.059 5.31474 143.897 5.96239C144.439 6.15295 145.052 6.5117 145.26 7.06529C145.778 8.43993 145.763 53.1928 145.615 57.9463C145.591 58.7174 145.456 59.3197 145.138 60.0238C144.356 60.6705 143.998 60.7327 143.033 60.922L136.02 60.983C135.129 60.5415 134.278 60.0633 133.573 59.351C130.274 56.0132 127.487 51.6114 124.633 47.8686C120.119 41.9466 115.429 36.1659 110.925 30.2332C111.08 35.1062 111.832 56.7298 110.809 60.0982C110.211 60.6843 109.597 60.8914 108.783 60.9637C106.269 61.1873 99.8267 61.4468 97.9913 59.9653C97.5416 59.1653 97.5881 58.1151 97.56 57.2132C97.2472 47.216 97.6123 37.126 97.5964 27.1178C97.5866 20.8674 96.9347 14.1211 97.6641 7.94791C97.813 6.68846 98.2297 6.33891 99.1757 5.58985Z" fill="#1F2C2D"/>
<path d="M153.645 5.94919C154.015 5.87955 154.387 5.82123 154.76 5.77425C157.738 5.40019 186.849 5.61678 187.385 6.10145C188.129 6.77391 188.24 8.08452 188.252 9.01709C188.273 10.725 188.626 15.0447 187.425 16.2187C186.086 17.5275 169.077 16.8948 166.083 16.8979C166.136 17.0152 166.234 17.2061 166.27 17.3415C166.718 18.9907 166.644 25.7683 165.835 27.3148C169.07 27.2998 182.691 26.5124 184.695 28.3019C185.081 28.6465 185.151 29.5754 185.167 30.076C185.228 31.9966 185.697 36.1481 184.327 37.5528C183.172 38.7408 168.476 38.137 165.961 38.1107C166.102 38.3447 166.2 38.5092 166.273 38.7764C166.65 40.1964 166.623 43.0048 165.848 44.282C165.952 44.4425 166.05 44.6031 166.126 44.7795C166.708 46.1251 166.494 48.4519 165.988 49.7864C169.649 49.9631 184.098 49.3498 186.273 49.9601C187.112 50.1963 187.835 50.6675 188.23 51.4717C189.036 53.1233 188.828 58.2202 188.184 59.957C188.047 60.327 188.096 60.3843 187.725 60.5467C185.697 61.43 155.784 61.2333 153.719 60.471C153.468 60.2042 153.284 59.9138 153.186 59.5572C152.221 56.0554 152.953 39.6201 152.953 34.9502C152.95 26.2352 152.441 17.3391 152.965 8.65129C153.026 7.66266 153.176 6.83611 153.645 5.94919Z" fill="#1F2C2D"/>
</svg>
