<svg width="606" height="136" viewBox="0 0 606 136" fill="none" xmlns="http://www.w3.org/2000/svg">
<path d="M34 49.814C106.412 16.834 131.03 41.3872 134.992 56.2747C135.654 60.0838 136 64.0015 136 68C136 105.555 105.555 136 68 136C67.5643 136 67.1296 135.994 66.6958 135.986C66.7352 135.987 66.7746 135.988 66.814 135.988C37.9535 120.19 32.4186 58.5116 34 49.814ZM20.9535 57.3256C13.4419 77.4884 14.2326 98.906 15.0233 110.634C15.0233 110.634 15.0262 110.638 15.0317 110.646C5.7825 99.1725 0.184958 84.6323 0.004633 68.7899C1.99276 68.777 12.2626 60.4859 20.9535 57.3256ZM68 0C81.732 0 94.5129 4.07118 105.203 11.0713C104.872 11.1569 93.1766 14.1804 85.7907 16.6047C66.3534 22.9845 37.9535 37.9535 37.9535 37.9535L45.0698 16.6047L34 21.7442L24.1163 47.0465L0.004633 68.786C0.00166906 68.5244 0 68.2624 0 68C0 30.4446 30.4446 0 68 0Z" fill="#DC0C18"/>
<path d="M446.857 93.3265H444.255V105.816C444.255 105.816 444.775 112.582 452.061 112.582C457.123 112.582 459.17 109.819 459.948 108.132C460.326 107.315 460.388 106.404 460.388 105.505V93.3265H457.265V106.337C457.265 106.337 456.745 109.98 452.061 109.98C447.377 109.98 446.857 105.296 446.857 105.296V93.3265Z" fill="#DC0C18"/>
<path d="M306.347 93.3265C306.375 93.3372 310.51 94.9059 310.51 100.092C310.51 105.275 306.38 106.328 306.347 106.336L311.03 112.061H308.428L303.744 106.336H298.021V112.061H295.938V93.3265H306.347ZM298.021 95.4086V104.255H305.827C305.852 104.25 308.429 103.717 308.429 100.092C308.429 96.4709 305.858 95.4209 305.827 95.4086H298.021Z" fill="#DC0C18"/>
<path d="M529.081 93.3265C529.081 93.3265 533.245 94.8881 533.245 100.092C533.245 105.296 529.081 106.336 529.081 106.336H520.755V112.061H518.673V93.3265H529.081ZM520.755 95.4086V104.255H528.561C528.561 104.255 531.163 103.735 531.163 100.092C531.163 96.4493 528.561 95.4086 528.561 95.4086H520.755Z" fill="#DC0C18"/>
<path d="M149.184 32.4389V23.5919H197.582V32.4389H177.286V79.2756H169.48V32.4389H149.184Z" fill="#DC0C18"/>
<path d="M293.337 71.4695V79.2756H254.306V23.5919H291.775V32.4389H262.112V45.9695H287.092V53.7756H262.112V71.4695H293.337Z" fill="#DC0C18"/>
<path d="M408.867 79.2756H398.98L380.765 50.1327H389.612C389.612 50.1327 398.98 46.4899 398.98 39.2042C398.98 31.9184 388.571 30.3572 388.571 30.3572H367.755L365.153 24.1123H392.214C392.214 24.1123 405.745 25.1531 405.745 39.2042C405.745 53.2552 392.735 55.3368 392.735 55.3368L408.867 79.2756Z" fill="#DC0C18"/>
<path d="M481.724 24.1123V31.9184H510.867L479.122 71.9898V79.2755H523.357V70.949H491.091L523.357 31.9184V24.1123H481.724Z" fill="#DC0C18"/>
<path d="M605.061 79.2756H596.734V23.5919H605.061V79.2756Z" fill="#DC0C18"/>
<path d="M234.01 109.459V103.214L236.612 103.214V112.061H229.847C229.847 112.061 219.959 112.582 219.959 103.214C219.959 93.8466 228.286 94.367 228.286 94.367L236.092 94.3674L236.092 96.9695H228.286C228.286 96.9695 222.561 96.9695 222.561 103.214C222.561 109.459 229.847 109.459 229.847 109.459L234.01 109.459Z" fill="#DC0C18"/>
<path d="M376.081 94.3675C380.296 94.3675 383.714 97.7849 383.714 102C383.714 106.216 380.296 109.633 376.081 109.633C371.866 109.633 368.449 106.215 368.449 102C368.449 97.785 371.866 94.3677 376.081 94.3675ZM376.081 96.4485C373.015 96.4487 370.53 98.9346 370.53 102C370.53 105.066 373.016 107.551 376.081 107.551C379.147 107.551 381.632 105.066 381.632 102C381.632 98.9346 379.147 96.4485 376.081 96.4485Z" fill="#DC0C18"/>
</svg>
